# xmcd
#
# Track frame offsets:
#	150
#	19860
#	38065
#	51620
#	66157
#	76475
#	90420
#	103555
#	114062
#	126402
#	137450
#	149895
#	169207
#	183540
#	200847
#	215647
#
# Disc length: 3015 seconds
#
# Revision: 5
# Processed by: cddbd v1.5.2PL0 Copyright (c) Steve Scherf et al.
# Submitted via: EasyCDDAExtractor 16.0.6.1
#
DISCID=f20bc510
DTITLE=Varios - C-062 Country Festival Vol. 3
DYEAR=1992
DGENRE=Country
TTITLE0=The Bellamy Brothers - If I Said You Had A Beautiful Body
TTITLE1=Hoyt Axton - Wild Bull Rider
TTITLE2=Merle Haggard and Friends - Games People Play
TTITLE3=Don Williams - My Woman's Love
TTITLE4=Anne Murray - Some Birds
TTITLE5=Charlie Rich and His All Stars - Midnite Blues
TTITLE6=Tanya Tucker and Friends - San Antonio Stroll
TTITLE7=Ricky Nelson - Hello Mary Lou
TTITLE8=Don Williams - Some Broken Hearts Never Mend
TTITLE9=Merle Haggard and Friends - Corinne Corinna
TTITLE10=Charlie Rich and His All Stars - She
TTITLE11=Jeannie C. Riley - Harper Valley PTA
TTITLE12=Lynn Anderson - Cry
TTITLE13=Anne Murray - Nobody Loves Me Like You Do
TTITLE14=Tanya Tucker and Friends - What's Your Mama's Name
TTITLE15=Patsy Cline - I Can See An Angel
EXTD=
EXTT0=
EXTT1=
EXTT2=
EXTT3=
EXTT4=
EXTT5=
EXTT6=
EXTT7=
EXTT8=
EXTT9=
EXTT10=
EXTT11=
EXTT12=
EXTT13=
EXTT14=
EXTT15=
PLAYORDER=
